<svg width="208" height="155" viewBox="0 0 208 155" fill="none" xmlns="http://www.w3.org/2000/svg">
<path d="M83.272 102V56.88H120.2V63.984H92.232V75.504H118.024V82.608H92.232V94.896H120.2V102H83.272ZM130.335 102V56.88H155.103C159.156 56.88 162.548 57.4133 165.279 58.48C168.009 59.5467 170.057 61.1467 171.423 63.28C172.831 65.3707 173.535 67.9733 173.535 71.088C173.535 74.2027 172.831 76.8267 171.423 78.96C170.057 81.0507 168.009 82.6507 165.279 83.76C162.548 84.8693 159.156 85.424 155.103 85.424H139.679V102H130.335ZM139.679 78.384H154.015C157.556 78.384 160.18 77.7867 161.887 76.592C163.593 75.3973 164.447 73.5627 164.447 71.088C164.447 68.5707 163.615 66.7573 161.951 65.648C160.287 64.496 157.641 63.92 154.015 63.92H139.679V78.384Z" fill="#3179BD"/>
<path d="M21.584 102V79.088L23.44 84.08L0.143997 56.88H11.024L27.472 76.08H25.424L42 56.88H52.368L29.136 84.08L30.928 79.088V102H21.584Z" fill="#3179BD"/>
<path d="M127.5 0L123.995 10.4634L129.388 12.1633L127.5 0Z" fill="#FFCC00"/>
<path d="M127.5 0L131.005 10.4634L125.612 12.1633L127.5 0Z" fill="#FFCC00"/>
<path d="M138.286 7.60211L127.017 8.0001L126.945 13.103L138.286 7.60211Z" fill="#FFCC00"/>
<path d="M138.286 7.31519L129.118 14.0688L125.778 9.90537L138.286 7.31519Z" fill="#FFCC00"/>
<path d="M134.166 19.8403L130.786 9.43915L125.268 11.2013L134.166 19.8403Z" fill="#FFCC00"/>
<path d="M134.113 19.9025L124.991 13.5432L128.378 8.98547L134.113 19.9025Z" fill="#FFCC00"/>
<path d="M116.714 7.60211L127.983 8.0001L128.055 13.103L116.714 7.60211Z" fill="#FFCC00"/>
<path d="M116.714 7.31519L125.882 14.0688L129.222 9.90537L116.714 7.31519Z" fill="#FFCC00"/>
<path d="M120.834 19.8403L124.214 9.43915L129.732 11.2013L120.834 19.8403Z" fill="#FFCC00"/>
<path d="M120.887 19.9025L130.009 13.5432L126.622 8.98547L120.887 19.9025Z" fill="#FFCC00"/>
<path d="M127.5 132.022L123.995 142.486L129.388 144.186L127.5 132.022Z" fill="#FFCC00"/>
<path d="M127.5 132.022L131.005 142.486L125.612 144.186L127.5 132.022Z" fill="#FFCC00"/>
<path d="M138.286 139.624L127.017 140.022L126.945 145.125L138.286 139.624Z" fill="#FFCC00"/>
<path d="M138.286 139.338L129.118 146.091L125.778 141.928L138.286 139.338Z" fill="#FFCC00"/>
<path d="M134.166 151.863L130.786 141.461L125.268 143.224L134.166 151.863Z" fill="#FFCC00"/>
<path d="M134.113 151.925L124.991 145.565L128.378 141.008L134.113 151.925Z" fill="#FFCC00"/>
<path d="M116.714 139.624L127.983 140.022L128.055 145.125L116.714 139.624Z" fill="#FFCC00"/>
<path d="M116.714 139.338L125.882 146.091L129.222 141.928L116.714 139.338Z" fill="#FFCC00"/>
<path d="M120.834 151.863L124.214 141.461L129.731 143.224L120.834 151.863Z" fill="#FFCC00"/>
<path d="M120.887 151.925L130.009 145.565L126.622 141.008L120.887 151.925Z" fill="#FFCC00"/>
<path d="M59.4527 66.0112L55.9481 76.4746L61.3411 78.1744L59.4527 66.0112Z" fill="#FFCC00"/>
<path d="M59.4527 66.0112L62.9573 76.4746L57.5642 78.1744L59.4527 66.0112Z" fill="#FFCC00"/>
<path d="M70.2388 73.6133L58.9693 74.0112L58.8976 79.1142L70.2388 73.6133Z" fill="#FFCC00"/>
<path d="M70.2388 73.3264L61.0706 80.08L57.7305 75.9165L70.2388 73.3264Z" fill="#FFCC00"/>
<path d="M66.1189 85.8515L62.7383 75.4503L57.2212 77.2124L66.1189 85.8515Z" fill="#FFCC00"/>
<path d="M66.0654 85.9137L56.9437 79.5543L60.3303 74.9966L66.0654 85.9137Z" fill="#FFCC00"/>
<path d="M48.6666 73.6133L59.9361 74.0113L60.0078 79.1142L48.6666 73.6133Z" fill="#FFCC00"/>
<path d="M48.6666 73.3264L57.8349 80.08L61.1749 75.9165L48.6666 73.3264Z" fill="#FFCC00"/>
<path d="M52.7865 85.8515L56.1671 75.4503L61.6842 77.2124L52.7865 85.8515Z" fill="#FFCC00"/>
<path d="M52.84 85.9137L61.9617 79.5543L58.5751 74.9966L52.84 85.9137Z" fill="#FFCC00"/>
<path d="M86.8655 28.7464L95.9854 22.3933L92.5969 17.8293L86.8655 28.7464Z" fill="#FFCC00"/>
<path d="M86.8102 28.682L90.1832 18.283L95.7079 20.0472L86.8102 28.682Z" fill="#FFCC00"/>
<path d="M82.6902 16.3785L91.9356 22.9126L95.1986 18.5297L82.6902 16.3785Z" fill="#FFCC00"/>
<path d="M82.6902 16.4459L93.9369 16.5416L94.0314 21.9468L82.6902 16.4459Z" fill="#FFCC00"/>
<path d="M93.3661 8.84384L89.9717 19.2293L95.475 21.0071L93.3661 8.84384Z" fill="#FFCC00"/>
<path d="M93.4419 8.84384L96.981 19.4366L91.6224 21.0071L93.4419 8.84384Z" fill="#FFCC00"/>
<path d="M100.205 28.7464L90.9673 22.1898L94.2375 17.8293L100.205 28.7464Z" fill="#FFCC00"/>
<path d="M100.143 28.8541L96.5911 18.283L91.2449 19.8751L100.143 28.8541Z" fill="#FFCC00"/>
<path d="M104.262 16.5521L95.0971 22.9127L91.7542 18.3561L104.262 16.5521Z" fill="#FFCC00"/>
<path d="M104.226 16.6L92.9213 16.4459L92.9574 21.7928L104.226 16.6Z" fill="#FFCC00"/>
<path d="M75.2355 52.8438L71.8625 42.4447L66.3378 44.209L75.2355 52.8438Z" fill="#FFCC00"/>
<path d="M75.1801 52.9081L66.0603 46.555L69.4487 41.991L75.1801 52.9081Z" fill="#FFCC00"/>
<path d="M61.8402 52.9081L71.0783 46.3515L67.8082 41.991L61.8402 52.9081Z" fill="#FFCC00"/>
<path d="M61.9031 53.0159L65.4546 42.4447L70.8008 44.0369L61.9031 53.0159Z" fill="#FFCC00"/>
<path d="M57.7832 40.7139L66.9486 47.0744L70.2915 42.5178L57.7832 40.7139Z" fill="#FFCC00"/>
<path d="M57.8193 40.7617L69.1244 40.6077L69.0883 45.9545L57.8193 40.7617Z" fill="#FFCC00"/>
<path d="M79.3554 40.5403L70.1101 47.0744L66.8471 42.6914L79.3554 40.5403Z" fill="#FFCC00"/>
<path d="M79.3554 40.6077L68.1088 40.7033L68.0142 46.1086L79.3554 40.6077Z" fill="#FFCC00"/>
<path d="M68.6795 33.0056L72.0739 43.3911L66.5706 45.1688L68.6795 33.0056Z" fill="#FFCC00"/>
<path d="M68.6038 33.0056L65.0647 43.5983L70.4232 45.1688L68.6038 33.0056Z" fill="#FFCC00"/>
<path d="M79.3554 106.619L68.113 107.116L68.0142 112.12L79.3554 106.619Z" fill="#FFCC00"/>
<path d="M79.3554 106.192L70.2265 113.086L66.8471 109.062L79.3554 106.192Z" fill="#FFCC00"/>
<path d="M75.2355 118.581L71.8301 108.456L66.3378 110.494L75.2355 118.581Z" fill="#FFCC00"/>
<path d="M75.4332 118.919L66.0603 113.127L69.1957 108.002L75.4332 118.919Z" fill="#FFCC00"/>
<path d="M62.0508 118.919L71.0783 112.005L67.5976 108.002L62.0508 118.919Z" fill="#FFCC00"/>
<path d="M61.9031 119.403L65.0622 108.456L70.8008 109.672L61.9031 119.403Z" fill="#FFCC00"/>
<path d="M68.3476 99.0167L72.0739 108.965L66.9025 111.18L68.3476 99.0167Z" fill="#FFCC00"/>
<path d="M67.9621 99.0167L65.0647 110.226L71.065 111.18L67.9621 99.0167Z" fill="#FFCC00"/>
<path d="M57.7832 107.442L68.7659 106.619L69.1244 111.297L57.7832 107.442Z" fill="#FFCC00"/>
<path d="M57.7832 107.269L67.4198 113.086L70.2915 107.985L57.7832 107.269Z" fill="#FFCC00"/>
<path d="M104.262 130.781L93.02 131.278L92.9213 136.282L104.262 130.781Z" fill="#FFCC00"/>
<path d="M104.262 130.354L95.1335 137.247L91.7542 133.224L104.262 130.354Z" fill="#FFCC00"/>
<path d="M100.143 142.743L96.7371 132.618L91.2448 134.656L100.143 142.743Z" fill="#FFCC00"/>
<path d="M100.34 143.081L90.9673 137.288L94.1027 132.164L100.34 143.081Z" fill="#FFCC00"/>
<path d="M86.9578 143.081L95.9854 136.166L92.5046 132.164L86.9578 143.081Z" fill="#FFCC00"/>
<path d="M86.8102 143.564L89.9692 132.618L95.7079 133.834L86.8102 143.564Z" fill="#FFCC00"/>
<path d="M93.2547 123.178L96.981 133.127L91.8096 135.342L93.2547 123.178Z" fill="#FFCC00"/>
<path d="M92.8691 123.178L89.9717 134.388L95.972 135.342L92.8691 123.178Z" fill="#FFCC00"/>
<path d="M82.6902 131.604L93.6729 130.781L94.0314 135.458L82.6902 131.604Z" fill="#FFCC00"/>
<path d="M82.6902 131.43L92.3269 137.247L95.1985 132.147L82.6902 131.43Z" fill="#FFCC00"/>
<path d="M195.547 66.0112L199.052 76.4746L193.659 78.1745L195.547 66.0112Z" fill="#FFCC00"/>
<path d="M195.547 66.0112L192.043 76.4746L197.436 78.1745L195.547 66.0112Z" fill="#FFCC00"/>
<path d="M184.761 73.6133L196.031 74.0113L196.102 79.1142L184.761 73.6133Z" fill="#FFCC00"/>
<path d="M184.761 73.3264L193.929 80.08L197.27 75.9166L184.761 73.3264Z" fill="#FFCC00"/>
<path d="M188.881 85.8515L192.262 75.4503L197.779 77.2124L188.881 85.8515Z" fill="#FFCC00"/>
<path d="M188.935 85.9137L198.056 79.5543L194.67 74.9966L188.935 85.9137Z" fill="#FFCC00"/>
<path d="M206.333 73.6133L195.064 74.0113L194.992 79.1142L206.333 73.6133Z" fill="#FFCC00"/>
<path d="M206.333 73.3264L197.165 80.08L193.825 75.9166L206.333 73.3264Z" fill="#FFCC00"/>
<path d="M202.214 85.8515L198.833 75.4503L193.316 77.2125L202.214 85.8515Z" fill="#FFCC00"/>
<path d="M202.16 85.9137L193.038 79.5543L196.425 74.9966L202.16 85.9137Z" fill="#FFCC00"/>
<path d="M168.134 28.7464L159.015 22.3933L162.403 17.8293L168.134 28.7464Z" fill="#FFCC00"/>
<path d="M168.19 28.682L164.817 18.283L159.292 20.0472L168.19 28.682Z" fill="#FFCC00"/>
<path d="M172.31 16.3785L163.064 22.9127L159.801 18.5297L172.31 16.3785Z" fill="#FFCC00"/>
<path d="M172.31 16.4459L161.063 16.5416L160.969 21.9469L172.31 16.4459Z" fill="#FFCC00"/>
<path d="M161.634 8.84384L165.028 19.2293L159.525 21.0071L161.634 8.84384Z" fill="#FFCC00"/>
<path d="M161.558 8.84384L158.019 19.4366L163.378 21.0071L161.558 8.84384Z" fill="#FFCC00"/>
<path d="M154.795 28.7464L164.033 22.1898L160.763 17.8293L154.795 28.7464Z" fill="#FFCC00"/>
<path d="M154.857 28.8541L158.409 18.283L163.755 19.8751L154.857 28.8541Z" fill="#FFCC00"/>
<path d="M150.738 16.5521L159.903 22.9127L163.246 18.3561L150.738 16.5521Z" fill="#FFCC00"/>
<path d="M150.774 16.6L162.079 16.4459L162.043 21.7928L150.774 16.6Z" fill="#FFCC00"/>
<path d="M179.765 52.8438L183.138 42.4447L188.662 44.209L179.765 52.8438Z" fill="#FFCC00"/>
<path d="M179.82 52.9081L188.94 46.555L185.551 41.991L179.82 52.9081Z" fill="#FFCC00"/>
<path d="M193.16 52.9081L183.922 46.3515L187.192 41.9911L193.16 52.9081Z" fill="#FFCC00"/>
<path d="M193.097 53.0159L189.545 42.4448L184.199 44.0369L193.097 53.0159Z" fill="#FFCC00"/>
<path d="M197.217 40.7139L188.051 47.0744L184.709 42.5179L197.217 40.7139Z" fill="#FFCC00"/>
<path d="M197.181 40.7618L185.876 40.6077L185.912 45.9545L197.181 40.7618Z" fill="#FFCC00"/>
<path d="M175.645 40.5403L184.89 47.0744L188.153 42.6915L175.645 40.5403Z" fill="#FFCC00"/>
<path d="M175.645 40.6077L186.891 40.7033L186.986 46.1086L175.645 40.6077Z" fill="#FFCC00"/>
<path d="M186.32 33.0056L182.926 43.3911L188.429 45.1689L186.32 33.0056Z" fill="#FFCC00"/>
<path d="M186.396 33.0056L189.935 43.5984L184.577 45.1689L186.396 33.0056Z" fill="#FFCC00"/>
<path d="M175.645 106.619L186.887 107.116L186.986 112.12L175.645 106.619Z" fill="#FFCC00"/>
<path d="M175.645 106.192L184.774 113.086L188.153 109.062L175.645 106.192Z" fill="#FFCC00"/>
<path d="M179.765 118.581L183.17 108.456L188.662 110.494L179.765 118.581Z" fill="#FFCC00"/>
<path d="M179.567 118.919L188.94 113.127L185.804 108.002L179.567 118.919Z" fill="#FFCC00"/>
<path d="M192.949 118.919L183.922 112.005L187.402 108.002L192.949 118.919Z" fill="#FFCC00"/>
<path d="M193.097 119.403L189.938 108.456L184.199 109.672L193.097 119.403Z" fill="#FFCC00"/>
<path d="M186.652 99.0167L182.926 108.965L188.097 111.18L186.652 99.0167Z" fill="#FFCC00"/>
<path d="M187.038 99.0167L189.935 110.226L183.935 111.18L187.038 99.0167Z" fill="#FFCC00"/>
<path d="M197.217 107.442L186.234 106.619L185.876 111.297L197.217 107.442Z" fill="#FFCC00"/>
<path d="M197.217 107.269L187.58 113.086L184.709 107.985L197.217 107.269Z" fill="#FFCC00"/>
<path d="M150.738 130.781L161.98 131.278L162.079 136.282L150.738 130.781Z" fill="#FFCC00"/>
<path d="M150.738 130.354L159.867 137.247L163.246 133.224L150.738 130.354Z" fill="#FFCC00"/>
<path d="M154.857 142.743L158.263 132.618L163.755 134.656L154.857 142.743Z" fill="#FFCC00"/>
<path d="M154.66 143.081L164.033 137.288L160.897 132.164L154.66 143.081Z" fill="#FFCC00"/>
<path d="M168.042 143.081L159.015 136.166L162.495 132.164L168.042 143.081Z" fill="#FFCC00"/>
<path d="M168.19 143.564L165.031 132.618L159.292 133.834L168.19 143.564Z" fill="#FFCC00"/>
<path d="M161.745 123.178L158.019 133.127L163.19 135.342L161.745 123.178Z" fill="#FFCC00"/>
<path d="M162.131 123.178L165.028 134.388L159.028 135.342L162.131 123.178Z" fill="#FFCC00"/>
<path d="M172.31 131.604L161.327 130.781L160.969 135.458L172.31 131.604Z" fill="#FFCC00"/>
<path d="M172.31 131.43L162.673 137.247L159.801 132.147L172.31 131.43Z" fill="#FFCC00"/>
</svg>
